<svg width="162" height="37" viewBox="0 0 162 37" fill="none" xmlns="http://www.w3.org/2000/svg">
<g clip-path="url(#clip0_4329_82148)">
<path d="M20.3879 13.1527C20.3879 5.90701 26.388 0.0332031 33.7894 0.0332031H37.2738V22.9137C37.2738 30.1594 31.2737 36.0332 23.8723 36.0332H20.3879V13.1527Z" fill="#FFCF33"/>
<path d="M0.5 11.2636C0.5 18.5094 6.50004 24.3832 13.9015 24.3832H17.3858V13.1529C17.3858 5.90714 11.3858 0.0333252 3.98438 0.0333252H0.5V11.2636Z" fill="#FFCF33"/>
<path d="M17.3857 24.2874L0.601807 0.0332031H3.98425C11.3857 0.0332031 17.3857 5.90702 17.3857 13.1527V24.2874Z" fill="#FFD755"/>
<path d="M63.6202 19.5026C71.0216 19.5026 77.0216 25.3764 77.0216 32.6221V36.0332H53.6495C46.2481 36.0332 40.248 30.1594 40.248 22.9136V19.5026H63.6202Z" fill="#4FA58C"/>
<path d="M72.1235 36.0332L60.6843 19.5026H63.6199C71.0214 19.5026 77.0214 25.3764 77.0214 32.6221V36.0332H72.1235Z" fill="#6CB49F"/>
<path d="M63.6202 16.5638C71.0216 16.5638 77.0216 10.69 77.0216 3.44428V0.0332031H53.6495C46.2481 0.0332031 40.248 5.90702 40.248 13.1527V16.5638H63.6202Z" fill="#4FA58C"/>
<path d="M58.6508 16.5638L48.0421 1.2333C49.748 0.462929 51.6474 0.0332031 53.6494 0.0332031H77.0215V3.44428C77.0215 10.69 71.0215 16.5638 63.62 16.5638H58.6508Z" fill="#6CB49F"/>
<path d="M138.509 19.5155V36.0331H134.381V34.6246C133.575 35.5636 132.366 36.0331 130.755 36.0331C129.629 36.0331 128.603 35.7798 127.676 35.273C126.748 34.7513 126.011 34.0134 125.463 33.0595C124.931 32.1055 124.665 31.0025 124.665 29.7505C124.665 28.4984 124.931 27.4028 125.463 26.4638C126.011 25.5098 126.748 24.7795 127.676 24.2727C128.603 23.7659 129.629 23.5125 130.755 23.5125C132.23 23.5125 133.37 23.9298 134.176 24.7646V22.1096C134.176 20.6769 135.362 19.5155 136.826 19.5155H138.509ZM131.667 32.657C132.412 32.657 133.028 32.4036 133.514 31.8969C134.001 31.3752 134.244 30.6597 134.244 29.7505C134.244 28.8561 134.001 28.1556 133.514 27.6488C133.043 27.142 132.427 26.8886 131.667 26.8886C130.907 26.8886 130.283 27.142 129.797 27.6488C129.31 28.1556 129.067 28.8561 129.067 29.7505C129.067 30.6597 129.31 31.3752 129.797 31.8969C130.283 32.4036 130.907 32.657 131.667 32.657Z" fill="white"/>
<path d="M120.192 25.1712C120.638 24.6095 121.216 24.192 121.924 23.9187C122.647 23.6303 123.471 23.4861 124.395 23.4861V27.38C123.994 27.3345 123.663 27.3117 123.402 27.3117C122.463 27.3117 121.724 27.5622 121.185 28.0631C120.662 28.5641 120.4 29.3308 120.4 30.3631V36.0331H116.012V23.4861H120.192V25.1712Z" fill="white"/>
<path fill-rule="evenodd" clip-rule="evenodd" d="M103.813 35.2149C104.699 35.7604 105.703 36.0331 106.823 36.0331C107.642 36.0331 108.387 35.8761 109.056 35.562C109.488 35.3591 109.864 35.1079 110.184 34.8085V36.0331H114.336V23.4861H110.184V24.7348C109.854 24.4223 109.469 24.1631 109.03 23.9572C108.378 23.6431 107.642 23.4861 106.823 23.4861C105.703 23.4861 104.699 23.7588 103.813 24.3044C102.943 24.8499 102.249 25.5938 101.731 26.5361C101.229 27.4783 100.979 28.5528 100.979 29.7596C100.979 30.9664 101.229 32.0409 101.731 32.9832C102.249 33.9254 102.943 34.6693 103.813 35.2149ZM109.582 31.8177C109.081 32.3467 108.42 32.6112 107.601 32.6112C107.082 32.6112 106.614 32.4872 106.196 32.2393C105.778 31.9913 105.452 31.6524 105.218 31.2226C104.984 30.7928 104.867 30.3051 104.867 29.7596C104.867 29.1976 104.984 28.7016 105.218 28.2718C105.469 27.842 105.795 27.5114 106.196 27.28C106.614 27.032 107.091 26.908 107.626 26.908C108.161 26.908 108.629 27.032 109.03 27.28C109.449 27.5114 109.766 27.842 109.984 28.2718C110.218 28.7016 110.335 29.1976 110.335 29.7596C110.335 30.5862 110.084 31.2722 109.582 31.8177Z" fill="white"/>
<path d="M94.0024 36.0331C92.3027 36.0331 90.7731 35.6853 89.4134 34.9895C88.0691 34.2785 87.0107 33.2953 86.2382 32.0399C85.4656 30.7844 85.0793 29.3626 85.0793 27.7743C85.0793 26.1861 85.4656 24.7642 86.2382 23.5088C87.0107 22.2533 88.0691 21.2777 89.4134 20.5819C90.7731 19.871 92.3027 19.5155 94.0024 19.5155C95.4857 19.5155 96.8222 19.7726 98.0119 20.2869C99.2016 20.8012 100.191 21.5424 100.979 22.5105L98.0583 25.097C97.0076 23.8567 95.7329 23.2365 94.2341 23.2365C93.3534 23.2365 92.5654 23.4256 91.8701 23.8037C91.1903 24.1819 90.6572 24.7189 90.2709 25.4147C89.9001 26.0953 89.7147 26.8819 89.7147 27.7743C89.7147 28.6668 89.9001 29.4609 90.2709 30.1567C90.6572 30.8374 91.1903 31.3668 91.8701 31.7449C92.5654 32.1231 93.3534 32.3121 94.2341 32.3121C95.7329 32.3121 97.0076 31.692 98.0583 30.4516L100.979 33.0382C100.191 34.0063 99.2016 34.7474 98.0119 35.2617C96.8222 35.776 95.4857 36.0331 94.0024 36.0331Z" fill="white"/>
<path fill-rule="evenodd" clip-rule="evenodd" d="M157.282 16.4979L161.5 3.84892H157.6L155.27 11.0088L153.002 3.84497H149.312L146.983 10.9428L144.735 3.84892H140.557L144.775 16.4979H148.93L151.068 10.1402L153.125 16.4979H157.282Z" fill="white"/>
<path d="M133.777 16.5509C132.399 16.5509 131.155 16.2714 130.045 15.7124C128.936 15.1535 128.065 14.3772 127.431 13.3835C126.813 12.3898 126.504 11.2641 126.504 10.0064C126.504 8.7643 126.813 7.64638 127.431 6.65268C128.065 5.65898 128.928 4.89041 130.022 4.34698C131.131 3.78802 132.383 3.50854 133.777 3.50854C135.172 3.50854 136.424 3.78802 137.533 4.34698C138.642 4.89041 139.506 5.65898 140.124 6.65268C140.742 7.63086 141.051 8.74877 141.051 10.0064C141.051 11.2641 140.742 12.3898 140.124 13.3835C139.506 14.3772 138.642 15.1535 137.533 15.7124C136.424 16.2714 135.172 16.5509 133.777 16.5509ZM133.777 13.0341C134.57 13.0341 135.219 12.7702 135.726 12.2423C136.234 11.6988 136.487 10.9535 136.487 10.0064C136.487 9.07483 136.234 8.34508 135.726 7.81717C135.219 7.28927 134.57 7.02532 133.777 7.02532C132.985 7.02532 132.335 7.28927 131.828 7.81717C131.321 8.34508 131.068 9.07483 131.068 10.0064C131.068 10.9535 131.321 11.6988 131.828 12.2423C132.335 12.7702 132.985 13.0341 133.777 13.0341Z" fill="white"/>
<path d="M114.108 0.0332031H115.974C117.438 0.0332031 118.624 1.19463 118.624 2.62732V16.5508H114.108V0.0332031Z" fill="white"/>
<path d="M120.717 0.0332031H122.584C124.047 0.0332031 125.234 1.19463 125.234 2.62732V16.5508H120.717V0.0332031Z" fill="white"/>
<path d="M112.875 10.053C112.875 10.0841 112.851 10.4489 112.804 11.1476H103.438C103.628 11.7997 103.993 12.3044 104.532 12.6615C105.086 13.0031 105.776 13.1739 106.6 13.1739C107.218 13.1739 107.748 13.0885 108.192 12.9177C108.652 12.7469 109.111 12.4674 109.571 12.0792L111.948 14.5014C110.696 15.8677 108.866 16.5509 106.457 16.5509C104.952 16.5509 103.628 16.2714 102.487 15.7124C101.346 15.1535 100.459 14.3772 99.8251 13.3835C99.2071 12.3898 98.8981 11.2641 98.8981 10.0064C98.8981 8.7643 99.1992 7.65415 99.8013 6.67597C100.419 5.68227 101.267 4.90594 102.345 4.34698C103.422 3.78802 104.635 3.50854 105.982 3.50854C107.265 3.50854 108.43 3.7725 109.476 4.3004C110.522 4.81278 111.346 5.56582 111.948 6.55952C112.566 7.5377 112.875 8.70219 112.875 10.053ZM106.005 6.65268C105.308 6.65268 104.722 6.84676 104.246 7.23493C103.787 7.62309 103.494 8.151 103.367 8.81864H108.644C108.517 8.151 108.216 7.62309 107.741 7.23493C107.281 6.84676 106.703 6.65268 106.005 6.65268Z" fill="white"/>
<path d="M94.6181 10.4904V16.54H89.9117V10.4205L83.5651 0.0332031H87.5196C88.1481 0.0332031 88.7302 0.356803 89.0522 0.885147L92.4788 6.50779L95.9055 0.885149C96.2275 0.356805 96.8096 0.0332031 97.438 0.0332031H100.989L94.6181 10.4904Z" fill="white"/>
</g>
<defs>
<clipPath id="clip0_4329_82148">
<rect width="161" height="36" fill="white" transform="translate(0.5 0.0332031)"/>
</clipPath>
</defs>
</svg>
