<svg width="1440" height="880" viewBox="0 0 1440 880" fill="none" xmlns="http://www.w3.org/2000/svg">
<g clip-path="url(#clip0_5806_591123)">
<rect width="1440" height="880" fill="#3D2467"/>
<path d="M433.5 880.338L-69.7499 1159.59L-572.999 880.338L-69.75 601.2L433.5 880.338Z" fill="#492B7C"/>
<path d="M1440 880.337L936.75 1159.59L433.5 880.337L936.75 601.199L1440 880.337Z" fill="#492B7C"/>
<path d="M1440 666.027L1440 880.338L936.749 601.199L433.5 880.338L-69.7499 601.2L-572.999 880.338L-572.999 666.027L-69.75 386.828L433.5 666.027L936.749 386.827L1440 666.027Z" fill="#462977"/>
<path d="M1440 0.0146823L1440 666.027L936.749 386.827L433.5 666.027L-69.7499 386.827L-572.999 666.027L-573 0.0150146L-69.7499 279.214L433.5 0.0148485L936.749 279.214L1440 0.0146823Z" fill="#41266E"/>
<path d="M-573 0.000488281L433.5 0.000289108L433.5 0.656316L-69.7499 279.856L-573 0.656516L-573 0.000488281Z" fill="#3C2365"/>
<path d="M433.5 0.000488281L1440 0.000312299L1440 0.65634L936.75 279.856L433.5 0.656516L433.5 0.000488281Z" fill="#3C2365"/>
</g>
<defs>
<clipPath id="clip0_5806_591123">
<rect width="1440" height="880" fill="white"/>
</clipPath>
</defs>
</svg>
