<svg width="1440" height="880" viewBox="0 0 1440 880" fill="none" xmlns="http://www.w3.org/2000/svg">
<g clip-path="url(#clip0_9491_1781)">
<rect width="1440" height="880" fill="#FFDF77"/>
<path d="M1526 561L1526 2504.7L386.5 1689.88L-753 2504.7L-753 561L386.5 1375.82L1526 561Z" fill="#FFEFBB"/>
<path d="M1526 -65.9999L1526 560.432L386.5 1376.1L-753 560.432L-753 -66L386.5 749.834L1526 -65.9999Z" fill="#FFE799"/>
<path d="M433.499 880.337L-69.7504 1159.59L-573 880.337L-69.7505 601.199L433.499 880.337Z" fill="#FFE285"/>
<path d="M1440 880.337L936.75 1159.59L433.5 880.337L936.75 601.199L1440 880.337Z" fill="#FFE285"/>
<path d="M1440 666.025L1440 880.336L936.75 601.198L433.5 880.336L-69.7494 601.198L-572.999 880.336L-572.999 666.025L-69.7495 386.826L433.5 666.025L936.75 386.826L1440 666.025Z" fill="#FFE9A0"/>
<path d="M1440 0.0133395L1440 666.025L936.75 386.826L433.5 666.025L-69.7494 386.826L-572.999 666.026L-572.999 0.0136719L-69.7494 279.213L433.5 0.0135057L936.75 279.213L1440 0.0133395Z" fill="#FFEFBB"/>
<path d="M-573 0L433.499 -0.000199173L433.499 0.655828L-69.7504 279.855L-573 0.656027L-573 0Z" fill="#FFF2C9"/>
<path d="M433.5 0L1440 -0.000175982L1440 0.655851L936.75 279.855L433.5 0.656027L433.5 0Z" fill="#FFF2C9"/>
</g>
<defs>
<clipPath id="clip0_9491_1781">
<rect width="1440" height="880" fill="white"/>
</clipPath>
</defs>
</svg>
